<?xml version="1.0" standalone="no"?>
<!DOCTYPE svg PUBLIC "-//W3C//DTD SVG 20010904//EN"
 "http://www.w3.org/TR/2001/REC-SVG-20010904/DTD/svg10.dtd">
<svg version="1.0" xmlns="http://www.w3.org/2000/svg"
 width="512.000000pt" height="512.000000pt" viewBox="0 0 512.000000 512.000000"
 preserveAspectRatio="xMidYMid meet">
<metadata>
Created by potrace 1.11, written by Peter Selinger 2001-2013
</metadata>
<g transform="translate(0.000000,512.000000) scale(0.100000,-0.100000)"
fill="#000000" stroke="none">
<path d="M777 4343 c-4 -3 -7 -294 -7 -646 0 -597 -1 -639 -17 -633 -85 33
-118 38 -220 34 -97 -3 -115 -7 -175 -36 -79 -39 -168 -117 -214 -189 -114
-177 -114 -439 0 -616 46 -72 135 -150 214 -189 60 -29 78 -33 175 -36 102 -4
135 1 220 34 16 6 17 -38 19 -637 l3 -644 663 -3 c592 -2 663 0 669 13 3 9 -4
45 -16 81 -96 293 135 584 464 584 329 0 560 -291 464 -584 -12 -36 -19 -72
-16 -81 6 -13 77 -15 669 -13 l663 3 3 647 2 647 48 -22 c41 -19 65 -22 177
-22 127 0 132 1 197 33 80 39 169 117 214 189 114 177 114 439 0 616 -45 72
-134 150 -214 189 -65 32 -70 33 -197 33 -112 0 -136 -3 -177 -22 l-48 -22 -2
647 -3 647 -654 3 c-369 1 -659 -2 -664 -7 -5 -5 -2 -31 7 -62 85 -286 -148
-569 -469 -569 -270 0 -485 198 -485 448 0 38 7 92 15 120 9 29 13 57 10 62
-7 11 -1307 14 -1318 3z"/>
</g>
</svg>
